<svg id="svg" version="1.1" xmlns="http://www.w3.org/2000/svg" xmlns:xlink="http://www.w3.org/1999/xlink" width="400" height="136.70886075949366" viewBox="0, 0, 400,136.70886075949366"><g id="svgg"><path id="path0" d="M43.000 1.312 L 43.000 2.624 41.162 2.700 C 38.020 2.829,38.173 2.415,38.049 11.105 L 37.953 17.794 36.018 17.865 C 32.847 17.983,33.000 17.545,33.000 26.488 L 33.000 32.961 30.833 33.028 C 29.071 33.083,28.613 33.149,28.381 33.381 C 28.000 33.762,27.865 36.184,27.847 42.938 L 27.833 48.126 25.748 48.196 C 22.751 48.296,22.843 48.103,22.837 54.267 L 22.833 58.451 21.479 58.555 C 18.181 58.809,18.083 59.053,17.837 67.650 C 17.747 70.803,17.653 73.401,17.628 73.423 C 17.603 73.446,16.871 73.541,16.000 73.636 C 12.780 73.984,12.671 74.332,12.668 84.268 L 12.667 88.619 11.004 88.734 C 7.618 88.967,7.670 88.820,7.668 98.185 L 7.667 103.787 5.792 103.875 C 2.480 104.031,2.697 103.466,2.555 112.292 L 2.446 119.000 1.223 119.000 L 0.000 119.000 0.000 127.833 L 0.000 136.667 19.000 136.667 L 38.000 136.667 38.000 130.333 L 38.000 124.000 38.542 124.000 C 39.532 123.999,41.878 123.511,42.174 123.244 C 42.791 122.685,42.879 121.777,42.954 115.208 L 43.027 108.833 65.834 108.833 L 88.640 108.833 88.702 118.125 C 88.779 129.580,88.543 128.758,91.808 128.945 L 93.667 129.051 93.667 132.859 L 93.667 136.667 129.083 136.667 L 164.500 136.667 164.500 135.417 L 164.500 134.167 166.674 134.167 C 169.665 134.167,169.667 134.165,169.667 131.198 L 169.667 129.047 171.518 128.930 C 174.462 128.744,174.651 128.355,174.661 122.458 L 174.667 119.000 176.633 119.000 C 179.690 119.000,179.667 119.027,179.667 115.494 L 179.667 113.363 180.375 113.253 C 182.842 112.872,184.167 111.506,184.167 109.343 C 184.167 109.094,184.307 108.826,184.500 108.705 C 184.808 108.513,184.833 108.317,184.833 106.165 L 184.833 103.833 186.417 103.833 C 187.290 103.833,188.000 103.763,188.000 103.677 C 188.000 103.591,188.236 103.498,188.525 103.469 C 189.659 103.356,189.739 103.028,189.842 98.030 C 189.893 95.584,189.950 93.733,189.968 93.917 C 190.392 98.049,190.551 98.258,193.417 98.446 L 195.000 98.550 195.000 100.421 C 195.000 102.692,195.114 103.351,195.525 103.458 C 195.695 103.503,195.833 103.605,195.833 103.686 C 195.833 103.767,196.760 103.833,197.892 103.833 L 199.951 103.833 200.042 108.208 C 200.162 113.997,200.064 113.830,203.352 113.832 L 204.953 113.833 205.070 116.042 C 205.411 122.522,205.851 123.388,208.915 123.620 L 210.136 123.712 210.193 126.038 C 210.267 129.065,210.204 129.000,213.102 129.000 L 215.167 129.000 215.167 130.307 C 215.167 131.026,215.216 132.751,215.276 134.140 L 215.385 136.667 238.109 136.667 L 260.833 136.667 260.833 133.833 C 260.833 132.056,260.771 131.000,260.667 131.000 C 260.575 131.000,260.500 130.754,260.500 130.454 C 260.500 129.794,260.096 129.167,259.671 129.167 C 259.446 129.167,259.284 128.936,259.084 128.336 C 258.715 127.225,257.628 126.118,256.520 125.725 C 255.733 125.445,255.667 125.380,255.667 124.886 C 255.667 124.584,255.558 124.289,255.418 124.211 C 255.280 124.133,255.089 123.628,254.990 123.077 C 254.570 120.745,253.084 119.500,250.719 119.500 C 250.690 119.500,250.661 118.544,250.654 117.375 C 250.636 114.153,250.530 114.045,247.375 114.017 L 245.500 114.000 245.500 111.589 C 245.500 109.408,245.470 109.163,245.190 109.012 C 244.986 108.904,244.813 108.513,244.687 107.881 C 244.297 105.930,243.405 105.036,241.458 104.648 L 240.500 104.457 240.491 102.437 C 240.475 99.058,240.286 98.840,237.375 98.836 L 235.500 98.833 235.498 96.708 C 235.495 94.224,235.424 93.862,234.915 93.735 C 234.633 93.664,234.481 93.439,234.325 92.861 C 233.853 91.116,233.097 90.307,231.479 89.816 L 230.369 89.478 230.295 87.031 C 230.195 83.722,230.156 83.668,227.867 83.665 C 227.161 83.664,226.308 83.617,225.971 83.562 L 225.358 83.460 225.304 81.140 C 225.239 78.333,225.420 78.506,222.542 78.503 L 220.333 78.500 220.333 74.177 C 220.333 71.474,220.271 69.814,220.167 69.750 C 220.075 69.693,220.000 69.506,220.000 69.333 C 220.000 68.781,219.358 68.500,218.088 68.497 C 216.772 68.495,216.853 68.264,218.236 68.074 C 219.376 67.917,220.000 67.265,220.000 66.232 C 220.000 65.830,220.075 65.500,220.167 65.500 C 220.273 65.500,220.333 64.167,220.333 61.833 L 220.333 58.167 222.471 58.167 C 225.356 58.167,225.333 58.190,225.333 55.284 C 225.333 52.862,225.107 53.135,227.358 52.841 C 230.005 52.496,230.333 51.664,230.333 45.292 L 230.333 43.000 232.417 43.000 C 233.694 43.000,234.500 42.936,234.500 42.833 C 234.500 42.742,234.650 42.667,234.833 42.667 C 235.056 42.667,235.167 42.556,235.167 42.333 C 235.167 42.150,235.242 42.000,235.333 42.000 C 235.437 42.000,235.500 41.064,235.500 39.526 L 235.500 37.053 236.501 36.750 C 238.165 36.246,239.500 34.658,239.500 33.181 C 239.500 32.974,239.662 32.843,240.000 32.775 L 240.500 32.675 240.500 30.254 L 240.500 27.833 242.240 27.833 C 243.220 27.833,244.025 27.761,244.083 27.667 C 244.140 27.575,244.337 27.500,244.522 27.500 C 245.374 27.500,245.413 27.288,245.470 22.304 L 245.524 17.667 247.720 17.661 C 250.739 17.654,250.667 17.723,250.667 14.848 L 250.667 12.667 252.486 12.667 C 255.753 12.667,255.667 12.860,255.667 5.558 L 255.667 0.000 235.417 0.000 L 215.167 0.000 215.167 1.667 C 215.167 3.299,215.159 3.333,214.780 3.333 C 212.821 3.333,211.507 4.491,210.997 6.667 C 210.879 7.172,210.644 7.681,210.474 7.801 C 210.199 7.996,210.167 8.275,210.167 10.426 L 210.167 12.833 208.792 12.837 C 205.306 12.847,205.318 12.825,205.064 20.019 L 204.966 22.789 203.025 22.876 C 199.974 23.012,200.161 22.659,200.042 28.529 L 199.952 32.975 197.734 33.029 C 194.892 33.099,195.096 32.836,195.028 36.509 C 194.996 38.272,194.910 39.464,194.820 39.408 C 194.736 39.356,194.667 39.180,194.667 39.016 C 194.667 38.340,194.140 38.153,191.949 38.049 L 189.862 37.951 189.794 33.767 C 189.701 28.034,189.764 28.152,186.708 28.032 L 184.833 27.958 184.833 25.718 C 184.833 23.174,184.729 22.833,183.950 22.833 C 183.451 22.833,183.389 22.770,183.104 21.958 C 182.715 20.854,181.644 19.791,180.517 19.390 L 179.687 19.096 179.635 16.220 C 179.570 12.587,179.743 12.806,176.842 12.701 L 174.667 12.622 174.660 8.936 C 174.648 3.046,174.536 2.824,171.505 2.700 L 169.667 2.624 169.667 1.312 L 169.667 0.000 149.405 -0.000 L 129.144 -0.000 129.202 5.792 C 129.234 8.977,129.320 11.709,129.393 11.862 C 129.640 12.380,130.738 12.667,132.479 12.667 L 134.118 12.667 134.210 14.708 C 134.347 17.725,134.285 17.667,137.328 17.667 L 139.301 17.667 139.362 21.958 C 139.442 27.642,139.394 27.559,142.767 27.781 L 144.301 27.881 144.359 30.018 C 144.435 32.824,144.343 32.733,147.144 32.804 L 149.276 32.859 149.435 37.417 C 149.632 43.083,149.577 43.000,153.074 43.000 L 154.500 43.000 154.500 45.412 L 154.500 47.825 154.958 48.064 C 155.308 48.246,155.484 48.536,155.701 49.284 C 156.128 50.762,157.848 52.167,159.231 52.167 C 159.396 52.167,159.473 52.744,159.546 54.542 C 159.690 58.093,159.755 58.164,162.855 58.166 L 164.460 58.167 164.581 60.587 C 164.721 63.386,164.686 63.332,166.364 63.335 C 167.385 63.337,167.428 63.355,167.799 63.927 C 168.009 64.251,168.515 64.752,168.924 65.040 L 169.667 65.564 169.667 66.924 L 169.667 68.283 167.460 68.381 C 164.590 68.509,164.667 68.428,164.667 71.326 L 164.667 73.449 162.935 73.555 C 159.654 73.756,159.551 73.998,159.510 81.602 L 159.500 83.453 157.292 83.571 C 154.453 83.722,154.598 83.570,154.529 86.483 L 154.476 88.788 153.005 88.872 C 151.333 88.968,150.365 89.342,150.045 90.015 C 149.770 90.595,149.334 94.839,149.334 96.935 L 149.333 98.620 148.458 98.725 C 147.977 98.783,147.016 98.831,146.324 98.832 C 144.422 98.834,144.435 98.815,144.359 101.736 C 144.299 104.066,144.281 104.173,143.940 104.237 C 140.729 104.846,140.263 105.250,139.839 107.791 C 139.728 108.455,139.568 109.041,139.485 109.093 C 139.402 109.144,139.333 110.262,139.333 111.576 L 139.333 113.967 137.172 114.025 C 134.136 114.107,134.199 113.967,134.177 120.708 L 134.167 124.000 131.667 124.000 L 129.167 124.000 129.167 117.748 C 129.167 114.136,129.100 111.373,129.009 111.206 C 128.922 111.047,128.806 110.635,128.751 110.290 C 128.608 109.394,128.106 109.124,126.444 109.048 C 125.696 109.014,124.840 108.949,124.542 108.902 L 124.000 108.818 124.000 103.653 C 124.000 94.415,123.881 94.076,120.584 93.879 L 119.021 93.786 118.951 88.518 C 118.832 79.558,118.692 79.152,115.612 78.786 L 114.000 78.594 114.000 73.997 C 114.000 71.356,113.933 69.333,113.844 69.242 C 113.758 69.155,113.569 68.346,113.425 67.446 C 112.979 64.665,112.407 64.085,109.792 63.761 L 108.833 63.643 108.832 59.280 C 108.831 53.146,108.959 53.406,105.855 53.231 L 103.833 53.117 103.833 46.799 C 103.833 38.020,103.924 38.271,100.675 38.077 L 98.667 37.957 98.661 32.020 C 98.653 22.880,98.765 23.222,95.684 22.948 L 93.667 22.768 93.667 17.704 C 93.667 8.481,93.519 8.052,90.271 7.846 L 88.750 7.750 88.705 3.875 L 88.661 -0.000 65.830 -0.000 L 43.000 0.000 43.000 1.312 M63.915 43.746 C 64.523 46.365,65.768 47.500,68.035 47.500 C 68.312 47.500,68.334 47.753,68.341 51.042 C 68.364 61.569,68.594 62.684,70.789 62.927 C 71.226 62.975,72.015 63.097,72.542 63.197 L 73.500 63.379 73.500 67.845 C 73.500 72.203,73.587 73.073,74.052 73.369 C 74.161 73.438,69.487 73.484,63.667 73.471 C 57.846 73.458,53.833 73.398,54.750 73.337 C 58.271 73.105,58.059 73.630,58.129 64.959 L 58.184 58.169 58.550 58.100 C 58.752 58.062,59.588 57.958,60.408 57.868 C 62.212 57.672,62.741 57.251,62.907 55.886 C 62.961 55.444,63.078 54.625,63.169 54.064 C 63.259 53.504,63.344 50.316,63.357 46.981 C 63.371 43.317,63.433 41.247,63.512 41.750 C 63.585 42.208,63.766 43.107,63.915 43.746 " stroke="none" fill="#fcfcfc" fill-rule="evenodd"></path><path id="path1" d="M266.763 1.958 C 266.697 3.035,266.592 4.637,266.530 5.517 C 266.391 7.481,266.608 133.171,266.754 135.208 L 266.858 136.667 279.012 136.667 L 291.167 136.667 291.166 71.458 C 291.166 35.594,291.117 4.844,291.057 3.125 L 290.947 -0.000 278.915 -0.000 L 266.883 0.000 266.763 1.958 M296.367 5.708 C 296.415 11.238,296.428 11.440,296.791 12.177 C 296.997 12.595,297.282 13.327,297.423 13.804 C 297.846 15.227,298.984 16.258,300.493 16.584 C 300.811 16.652,301.261 16.848,301.493 17.018 C 302.308 17.614,303.852 17.660,323.042 17.663 L 341.833 17.667 341.833 77.167 L 341.833 136.667 351.917 136.667 L 362.000 136.667 362.000 77.167 L 362.000 17.667 381.000 17.667 L 400.000 17.667 400.000 8.833 L 400.000 0.000 348.159 -0.000 L 296.317 -0.000 296.367 5.708 " stroke="none" fill="#fc8c3c" fill-rule="evenodd"></path><path id="path2" d="" stroke="none" fill="#fc100cc" fill-rule="evenodd"></path><path id="path3" d="" stroke="none" fill="#fc100cc" fill-rule="evenodd"></path><path id="path4" d="" stroke="none" fill="#fc100cc" fill-rule="evenodd"></path></g></svg>